<?xml version="1.0" standalone="no"?>
<!DOCTYPE svg PUBLIC "-//W3C//DTD SVG 20010904//EN"
 "http://www.w3.org/TR/2001/REC-SVG-20010904/DTD/svg10.dtd">
<svg version="1.0" xmlns="http://www.w3.org/2000/svg"
 width="540.000000pt" height="540.000000pt" viewBox="0 0 540.000000 540.000000"
 preserveAspectRatio="xMidYMid meet">
<metadata>
Created by potrace 1.14, written by Peter Selinger 2001-2017
</metadata>
<g transform="translate(0.000000,540.000000) scale(0.100000,-0.100000)"
fill="#000000" stroke="none">
<path d="M2656 4792 c-15 -2 -65 -19 -109 -38 -45 -19 -85 -34 -90 -34 -5 0
-23 -7 -40 -15 -29 -13 -663 -263 -892 -351 -49 -20 -99 -39 -110 -44 -11 -5
-45 -19 -75 -30 -30 -11 -64 -25 -75 -30 -11 -5 -171 -68 -355 -140 -602 -236
-640 -252 -671 -282 -55 -56 -62 -141 -16 -209 38 -56 75 -71 182 -73 52 0 96
-3 97 -6 0 -3 2 -46 3 -97 3 -112 8 -133 41 -173 44 -52 76 -63 193 -64 l105
-1 1 -833 c0 -459 -3 -838 -6 -843 -3 -5 -48 -9 -100 -10 -108 -2 -164 -20
-197 -66 -28 -40 -34 -68 -36 -176 l-1 -92 -115 -5 c-108 -5 -117 -7 -153 -34
-63 -48 -67 -68 -67 -341 0 -272 2 -279 70 -293 26 -6 4801 -8 4918 -3 13 1
34 12 48 26 l25 25 -3 258 c-3 251 -4 258 -26 290 -40 56 -86 72 -205 72
l-104 0 0 103 c1 91 -2 108 -24 147 -38 69 -74 85 -199 85 -58 0 -107 3 -110
7 -4 5 -5 1632 -1 1675 1 8 26 11 79 11 125 -1 136 1 179 29 61 39 77 82 76
204 0 54 2 99 6 100 3 0 47 1 96 3 60 2 101 8 123 20 39 20 79 78 87 126 9 58
-31 141 -80 168 -18 9 -988 392 -1580 624 -126 49 -239 94 -250 99 -11 5 -135
54 -275 109 -242 95 -297 111 -364 102z m-800 -2429 l0 -843 -35 -1 c-117 -2
-294 0 -298 4 -3 4 -7 1498 -4 1657 l1 26 168 -1 167 0 1 -842z m1014 0 l0
-843 -40 -1 c-22 0 -78 0 -125 0 -47 0 -105 0 -130 0 l-45 1 0 843 0 843 170
0 170 0 0 -843z m1011 782 c2 -346 -1 -1618 -4 -1622 -4 -4 -220 -6 -312 -4
-21 1 -21 3 -19 839 1 460 2 840 3 843 0 3 75 5 166 5 l165 0 1 -61z"/>
</g>
</svg>
